<svg class="rich-terminal" viewBox="0 0 1190 440.4" xmlns="http://www.w3.org/2000/svg">
    <!-- Generated with Rich https://www.textualize.io -->
    <style>

    @font-face {
        font-family: "Fira Code";
        src: local("FiraCode-Regular"),
                url("https://cdnjs.cloudflare.com/ajax/libs/firacode/6.2.0/woff2/FiraCode-Regular.woff2") format("woff2"),
                url("https://cdnjs.cloudflare.com/ajax/libs/firacode/6.2.0/woff/FiraCode-Regular.woff") format("woff");
        font-style: normal;
        font-weight: 400;
    }
    @font-face {
        font-family: "Fira Code";
        src: local("FiraCode-Bold"),
                url("https://cdnjs.cloudflare.com/ajax/libs/firacode/6.2.0/woff2/FiraCode-Bold.woff2") format("woff2"),
                url("https://cdnjs.cloudflare.com/ajax/libs/firacode/6.2.0/woff/FiraCode-Bold.woff") format("woff");
        font-style: bold;
        font-weight: 700;
    }

    .terminal-2889145390-matrix {
        font-family: Fira Code, monospace;
        font-size: 20px;
        line-height: 24.4px;
        font-variant-east-asian: full-width;
    }

    .terminal-2889145390-title {
        font-size: 18px;
        font-weight: bold;
        font-family: arial;
    }

    .terminal-2889145390-r1 { fill: #c5c8c6 }
.terminal-2889145390-r2 { fill: #6e6e6e }
.terminal-2889145390-r3 { fill: #d18b40;font-weight: bold }
.terminal-2889145390-r4 { fill: #d18b40 }
.terminal-2889145390-r5 { fill: #e0af68;font-weight: bold }
.terminal-2889145390-r6 { fill: #e1e1e1 }
.terminal-2889145390-r7 { fill: #a3a3a4 }
.terminal-2889145390-r8 { fill: #dfdfdf }
.terminal-2889145390-r9 { fill: #9f9f9f }
.terminal-2889145390-r10 { fill: #e0af68 }
.terminal-2889145390-r11 { fill: #0f0f10;font-weight: bold }
.terminal-2889145390-r12 { fill: #e1e1e1;font-weight: bold }
    </style>

    <defs>
    <clipPath id="terminal-2889145390-clip-terminal">
      <rect x="0" y="0" width="1170.1999999999998" height="389.4" />
    </clipPath>
    <clipPath id="terminal-2889145390-line-0">
    <rect x="0" y="1.5" width="1171.2" height="24.65"/>
            </clipPath>
<clipPath id="terminal-2889145390-line-1">
    <rect x="0" y="25.9" width="1171.2" height="24.65"/>
            </clipPath>
<clipPath id="terminal-2889145390-line-2">
    <rect x="0" y="50.3" width="1171.2" height="24.65"/>
            </clipPath>
<clipPath id="terminal-2889145390-line-3">
    <rect x="0" y="74.7" width="1171.2" height="24.65"/>
            </clipPath>
<clipPath id="terminal-2889145390-line-4">
    <rect x="0" y="99.1" width="1171.2" height="24.65"/>
            </clipPath>
<clipPath id="terminal-2889145390-line-5">
    <rect x="0" y="123.5" width="1171.2" height="24.65"/>
            </clipPath>
<clipPath id="terminal-2889145390-line-6">
    <rect x="0" y="147.9" width="1171.2" height="24.65"/>
            </clipPath>
<clipPath id="terminal-2889145390-line-7">
    <rect x="0" y="172.3" width="1171.2" height="24.65"/>
            </clipPath>
<clipPath id="terminal-2889145390-line-8">
    <rect x="0" y="196.7" width="1171.2" height="24.65"/>
            </clipPath>
<clipPath id="terminal-2889145390-line-9">
    <rect x="0" y="221.1" width="1171.2" height="24.65"/>
            </clipPath>
<clipPath id="terminal-2889145390-line-10">
    <rect x="0" y="245.5" width="1171.2" height="24.65"/>
            </clipPath>
<clipPath id="terminal-2889145390-line-11">
    <rect x="0" y="269.9" width="1171.2" height="24.65"/>
            </clipPath>
<clipPath id="terminal-2889145390-line-12">
    <rect x="0" y="294.3" width="1171.2" height="24.65"/>
            </clipPath>
<clipPath id="terminal-2889145390-line-13">
    <rect x="0" y="318.7" width="1171.2" height="24.65"/>
            </clipPath>
<clipPath id="terminal-2889145390-line-14">
    <rect x="0" y="343.1" width="1171.2" height="24.65"/>
            </clipPath>
    </defs>

    <rect fill="#292929" stroke="rgba(255,255,255,0.35)" stroke-width="1" x="1" y="1" width="1188" height="438.4" rx="8"/><text class="terminal-2889145390-title" fill="#c5c8c6" text-anchor="middle" x="594" y="27">pydantic-studio&#160;—&#160;sequence&#160;editing</text>
            <g transform="translate(26,22)">
            <circle cx="0" cy="0" r="7" fill="#ff5f57"/>
            <circle cx="22" cy="0" r="7" fill="#febc2e"/>
            <circle cx="44" cy="0" r="7" fill="#28c840"/>
            </g>
        
    <g transform="translate(9, 41)" clip-path="url(#terminal-2889145390-clip-terminal)">
    <rect fill="#0f0f10" x="0" y="1.5" width="12.2" height="24.65" shape-rendering="crispEdges"/><rect fill="#0f0f10" x="12.2" y="1.5" width="146.4" height="24.65" shape-rendering="crispEdges"/><rect fill="#0f0f10" x="158.6" y="1.5" width="36.6" height="24.65" shape-rendering="crispEdges"/><rect fill="#0f0f10" x="195.2" y="1.5" width="97.6" height="24.65" shape-rendering="crispEdges"/><rect fill="#0f0f10" x="292.8" y="1.5" width="36.6" height="24.65" shape-rendering="crispEdges"/><rect fill="#0f0f10" x="329.4" y="1.5" width="158.6" height="24.65" shape-rendering="crispEdges"/><rect fill="#0f0f10" x="488" y="1.5" width="671" height="24.65" shape-rendering="crispEdges"/><rect fill="#0f0f10" x="1159" y="1.5" width="12.2" height="24.65" shape-rendering="crispEdges"/><rect fill="#0f0f10" x="0" y="25.9" width="12.2" height="24.65" shape-rendering="crispEdges"/><rect fill="#1a1a1c" x="12.2" y="25.9" width="12.2" height="24.65" shape-rendering="crispEdges"/><rect fill="#1a1a1c" x="24.4" y="25.9" width="12.2" height="24.65" shape-rendering="crispEdges"/><rect fill="#1a1a1c" x="36.6" y="25.9" width="12.2" height="24.65" shape-rendering="crispEdges"/><rect fill="#1a1a1c" x="48.8" y="25.9" width="12.2" height="24.65" shape-rendering="crispEdges"/><rect fill="#1a1a1c" x="61" y="25.9" width="109.8" height="24.65" shape-rendering="crispEdges"/><rect fill="#1a1a1c" x="170.8" y="25.9" width="12.2" height="24.65" shape-rendering="crispEdges"/><rect fill="#1a1a1c" x="183" y="25.9" width="24.4" height="24.65" shape-rendering="crispEdges"/><rect fill="#1a1a1c" x="207.4" y="25.9" width="97.6" height="24.65" shape-rendering="crispEdges"/><rect fill="#1a1a1c" x="305" y="25.9" width="768.6" height="24.65" shape-rendering="crispEdges"/><rect fill="#1a1a1c" x="1073.6" y="25.9" width="24.4" height="24.65" shape-rendering="crispEdges"/><rect fill="#1a1a1c" x="1098" y="25.9" width="12.2" height="24.65" shape-rendering="crispEdges"/><rect fill="#1a1a1c" x="1110.2" y="25.9" width="24.4" height="24.65" shape-rendering="crispEdges"/><rect fill="#1a1a1c" x="1134.6" y="25.9" width="12.2" height="24.65" shape-rendering="crispEdges"/><rect fill="#1a1a1c" x="1146.8" y="25.9" width="12.2" height="24.65" shape-rendering="crispEdges"/><rect fill="#0f0f10" x="1159" y="25.9" width="12.2" height="24.65" shape-rendering="crispEdges"/><rect fill="#0f0f10" x="0" y="50.3" width="12.2" height="24.65" shape-rendering="crispEdges"/><rect fill="#0f0f10" x="12.2" y="50.3" width="12.2" height="24.65" shape-rendering="crispEdges"/><rect fill="#0f0f10" x="24.4" y="50.3" width="12.2" height="24.65" shape-rendering="crispEdges"/><rect fill="#0f0f10" x="36.6" y="50.3" width="12.2" height="24.65" shape-rendering="crispEdges"/><rect fill="#0f0f10" x="48.8" y="50.3" width="12.2" height="24.65" shape-rendering="crispEdges"/><rect fill="#0f0f10" x="61" y="50.3" width="109.8" height="24.65" shape-rendering="crispEdges"/><rect fill="#0f0f10" x="170.8" y="50.3" width="12.2" height="24.65" shape-rendering="crispEdges"/><rect fill="#0f0f10" x="183" y="50.3" width="24.4" height="24.65" shape-rendering="crispEdges"/><rect fill="#0f0f10" x="207.4" y="50.3" width="97.6" height="24.65" shape-rendering="crispEdges"/><rect fill="#0f0f10" x="305" y="50.3" width="768.6" height="24.65" shape-rendering="crispEdges"/><rect fill="#0f0f10" x="1073.6" y="50.3" width="24.4" height="24.65" shape-rendering="crispEdges"/><rect fill="#0f0f10" x="1098" y="50.3" width="12.2" height="24.65" shape-rendering="crispEdges"/><rect fill="#0f0f10" x="1110.2" y="50.3" width="24.4" height="24.65" shape-rendering="crispEdges"/><rect fill="#0f0f10" x="1134.6" y="50.3" width="12.2" height="24.65" shape-rendering="crispEdges"/><rect fill="#0f0f10" x="1146.8" y="50.3" width="12.2" height="24.65" shape-rendering="crispEdges"/><rect fill="#0f0f10" x="1159" y="50.3" width="12.2" height="24.65" shape-rendering="crispEdges"/><rect fill="#0f0f10" x="0" y="74.7" width="12.2" height="24.65" shape-rendering="crispEdges"/><rect fill="#0f0f10" x="12.2" y="74.7" width="24.4" height="24.65" shape-rendering="crispEdges"/><rect fill="#0f0f10" x="36.6" y="74.7" width="170.8" height="24.65" shape-rendering="crispEdges"/><rect fill="#0f0f10" x="207.4" y="74.7" width="927.2" height="24.65" shape-rendering="crispEdges"/><rect fill="#0f0f10" x="1134.6" y="74.7" width="24.4" height="24.65" shape-rendering="crispEdges"/><rect fill="#0f0f10" x="1159" y="74.7" width="12.2" height="24.65" shape-rendering="crispEdges"/><rect fill="#0f0f10" x="0" y="99.1" width="12.2" height="24.65" shape-rendering="crispEdges"/><rect fill="#0f0f10" x="12.2" y="99.1" width="1146.8" height="24.65" shape-rendering="crispEdges"/><rect fill="#0f0f10" x="1159" y="99.1" width="12.2" height="24.65" shape-rendering="crispEdges"/><rect fill="#0f0f10" x="0" y="123.5" width="12.2" height="24.65" shape-rendering="crispEdges"/><rect fill="#0f0f10" x="12.2" y="123.5" width="1146.8" height="24.65" shape-rendering="crispEdges"/><rect fill="#0f0f10" x="1159" y="123.5" width="12.2" height="24.65" shape-rendering="crispEdges"/><rect fill="#0f0f10" x="0" y="147.9" width="12.2" height="24.65" shape-rendering="crispEdges"/><rect fill="#0f0f10" x="12.2" y="147.9" width="1146.8" height="24.65" shape-rendering="crispEdges"/><rect fill="#0f0f10" x="1159" y="147.9" width="12.2" height="24.65" shape-rendering="crispEdges"/><rect fill="#0f0f10" x="0" y="172.3" width="12.2" height="24.65" shape-rendering="crispEdges"/><rect fill="#0f0f10" x="12.2" y="172.3" width="1146.8" height="24.65" shape-rendering="crispEdges"/><rect fill="#0f0f10" x="1159" y="172.3" width="12.2" height="24.65" shape-rendering="crispEdges"/><rect fill="#0f0f10" x="0" y="196.7" width="12.2" height="24.65" shape-rendering="crispEdges"/><rect fill="#0f0f10" x="12.2" y="196.7" width="1146.8" height="24.65" shape-rendering="crispEdges"/><rect fill="#0f0f10" x="1159" y="196.7" width="12.2" height="24.65" shape-rendering="crispEdges"/><rect fill="#0f0f10" x="0" y="221.1" width="12.2" height="24.65" shape-rendering="crispEdges"/><rect fill="#0f0f10" x="12.2" y="221.1" width="1146.8" height="24.65" shape-rendering="crispEdges"/><rect fill="#0f0f10" x="1159" y="221.1" width="12.2" height="24.65" shape-rendering="crispEdges"/><rect fill="#0f0f10" x="0" y="245.5" width="12.2" height="24.65" shape-rendering="crispEdges"/><rect fill="#0f0f10" x="12.2" y="245.5" width="1146.8" height="24.65" shape-rendering="crispEdges"/><rect fill="#0f0f10" x="1159" y="245.5" width="12.2" height="24.65" shape-rendering="crispEdges"/><rect fill="#0f0f10" x="0" y="269.9" width="12.2" height="24.65" shape-rendering="crispEdges"/><rect fill="#0f0f10" x="12.2" y="269.9" width="1146.8" height="24.65" shape-rendering="crispEdges"/><rect fill="#0f0f10" x="1159" y="269.9" width="12.2" height="24.65" shape-rendering="crispEdges"/><rect fill="#0f0f10" x="0" y="294.3" width="12.2" height="24.65" shape-rendering="crispEdges"/><rect fill="#0f0f10" x="12.2" y="294.3" width="512.4" height="24.65" shape-rendering="crispEdges"/><rect fill="#0f0f10" x="524.6" y="294.3" width="36.6" height="24.65" shape-rendering="crispEdges"/><rect fill="#0f0f10" x="561.2" y="294.3" width="12.2" height="24.65" shape-rendering="crispEdges"/><rect fill="#0f0f10" x="573.4" y="294.3" width="280.6" height="24.65" shape-rendering="crispEdges"/><rect fill="#0f0f10" x="854" y="294.3" width="305" height="24.65" shape-rendering="crispEdges"/><rect fill="#0f0f10" x="1159" y="294.3" width="12.2" height="24.65" shape-rendering="crispEdges"/><rect fill="#0f0f10" x="0" y="318.7" width="12.2" height="24.65" shape-rendering="crispEdges"/><rect fill="#d18b40" x="12.2" y="318.7" width="183" height="24.65" shape-rendering="crispEdges"/><rect fill="#d18b40" x="195.2" y="318.7" width="12.2" height="24.65" shape-rendering="crispEdges"/><rect fill="#0f0f10" x="207.4" y="318.7" width="12.2" height="24.65" shape-rendering="crispEdges"/><rect fill="#1a1a1c" x="219.6" y="318.7" width="207.4" height="24.65" shape-rendering="crispEdges"/><rect fill="#0f0f10" x="427" y="318.7" width="732" height="24.65" shape-rendering="crispEdges"/><rect fill="#0f0f10" x="1159" y="318.7" width="12.2" height="24.65" shape-rendering="crispEdges"/><rect fill="#0f0f10" x="0" y="343.1" width="1171.2" height="24.65" shape-rendering="crispEdges"/><rect fill="#0f0f10" x="0" y="367.5" width="12.2" height="24.65" shape-rendering="crispEdges"/><rect fill="#0f0f10" x="12.2" y="367.5" width="48.8" height="24.65" shape-rendering="crispEdges"/><rect fill="#0f0f10" x="61" y="367.5" width="61" height="24.65" shape-rendering="crispEdges"/><rect fill="#0f0f10" x="122" y="367.5" width="427" height="24.65" shape-rendering="crispEdges"/><rect fill="#0f0f10" x="549" y="367.5" width="36.6" height="24.65" shape-rendering="crispEdges"/><rect fill="#0f0f10" x="585.6" y="367.5" width="122" height="24.65" shape-rendering="crispEdges"/><rect fill="#0f0f10" x="707.6" y="367.5" width="85.4" height="24.65" shape-rendering="crispEdges"/><rect fill="#0f0f10" x="793" y="367.5" width="97.6" height="24.65" shape-rendering="crispEdges"/><rect fill="#0f0f10" x="890.6" y="367.5" width="36.6" height="24.65" shape-rendering="crispEdges"/><rect fill="#0f0f10" x="927.2" y="367.5" width="61" height="24.65" shape-rendering="crispEdges"/><rect fill="#0f0f10" x="988.2" y="367.5" width="170.8" height="24.65" shape-rendering="crispEdges"/><rect fill="#0f0f10" x="1159" y="367.5" width="12.2" height="24.65" shape-rendering="crispEdges"/>
    <g class="terminal-2889145390-matrix">
    <text class="terminal-2889145390-r2" x="12.2" y="20" textLength="146.4" clip-path="url(#terminal-2889145390-line-0)">ServerConfig</text><text class="terminal-2889145390-r2" x="158.6" y="20" textLength="36.6" clip-path="url(#terminal-2889145390-line-0)">&#160;›&#160;</text><text class="terminal-2889145390-r2" x="195.2" y="20" textLength="97.6" clip-path="url(#terminal-2889145390-line-0)">database</text><text class="terminal-2889145390-r2" x="292.8" y="20" textLength="36.6" clip-path="url(#terminal-2889145390-line-0)">&#160;›&#160;</text><text class="terminal-2889145390-r3" x="329.4" y="20" textLength="158.6" clip-path="url(#terminal-2889145390-line-0)">read_replicas</text><text class="terminal-2889145390-r1" x="1171.2" y="20" textLength="12.2" clip-path="url(#terminal-2889145390-line-0)">
</text><text class="terminal-2889145390-r4" x="24.4" y="44.4" textLength="12.2" clip-path="url(#terminal-2889145390-line-1)">▎</text><text class="terminal-2889145390-r3" x="48.8" y="44.4" textLength="12.2" clip-path="url(#terminal-2889145390-line-1)">0</text><text class="terminal-2889145390-r6" x="207.4" y="44.4" textLength="97.6" clip-path="url(#terminal-2889145390-line-1)">2&#160;fields</text><text class="terminal-2889145390-r3" x="1098" y="44.4" textLength="12.2" clip-path="url(#terminal-2889145390-line-1)">›</text><text class="terminal-2889145390-r7" x="1134.6" y="44.4" textLength="12.2" clip-path="url(#terminal-2889145390-line-1)">✕</text><text class="terminal-2889145390-r1" x="1171.2" y="44.4" textLength="12.2" clip-path="url(#terminal-2889145390-line-1)">
</text><text class="terminal-2889145390-r8" x="48.8" y="68.8" textLength="12.2" clip-path="url(#terminal-2889145390-line-2)">1</text><text class="terminal-2889145390-r8" x="207.4" y="68.8" textLength="97.6" clip-path="url(#terminal-2889145390-line-2)">2&#160;fields</text><text class="terminal-2889145390-r9" x="1098" y="68.8" textLength="12.2" clip-path="url(#terminal-2889145390-line-2)">›</text><text class="terminal-2889145390-r9" x="1134.6" y="68.8" textLength="12.2" clip-path="url(#terminal-2889145390-line-2)">✕</text><text class="terminal-2889145390-r1" x="1171.2" y="68.8" textLength="12.2" clip-path="url(#terminal-2889145390-line-2)">
</text><text class="terminal-2889145390-r4" x="36.6" y="93.2" textLength="170.8" clip-path="url(#terminal-2889145390-line-3)">[&#160;+&#160;add&#160;item&#160;]</text><text class="terminal-2889145390-r1" x="1171.2" y="93.2" textLength="12.2" clip-path="url(#terminal-2889145390-line-3)">
</text><text class="terminal-2889145390-r1" x="1171.2" y="117.6" textLength="12.2" clip-path="url(#terminal-2889145390-line-4)">
</text><text class="terminal-2889145390-r1" x="1171.2" y="142" textLength="12.2" clip-path="url(#terminal-2889145390-line-5)">
</text><text class="terminal-2889145390-r1" x="1171.2" y="166.4" textLength="12.2" clip-path="url(#terminal-2889145390-line-6)">
</text><text class="terminal-2889145390-r1" x="1171.2" y="190.8" textLength="12.2" clip-path="url(#terminal-2889145390-line-7)">
</text><text class="terminal-2889145390-r1" x="1171.2" y="215.2" textLength="12.2" clip-path="url(#terminal-2889145390-line-8)">
</text><text class="terminal-2889145390-r1" x="1171.2" y="239.6" textLength="12.2" clip-path="url(#terminal-2889145390-line-9)">
</text><text class="terminal-2889145390-r1" x="1171.2" y="264" textLength="12.2" clip-path="url(#terminal-2889145390-line-10)">
</text><text class="terminal-2889145390-r1" x="1171.2" y="288.4" textLength="12.2" clip-path="url(#terminal-2889145390-line-11)">
</text><text class="terminal-2889145390-r10" x="12.2" y="312.8" textLength="512.4" clip-path="url(#terminal-2889145390-line-12)">⚠&#160;2&#160;required&#160;fields&#160;missing&#160;(Ctrl+N&#160;jumps)</text><text class="terminal-2889145390-r3" x="561.2" y="312.8" textLength="12.2" clip-path="url(#terminal-2889145390-line-12)">0</text><text class="terminal-2889145390-r2" x="573.4" y="312.8" textLength="280.6" clip-path="url(#terminal-2889145390-line-12)">&#160;(group,&#160;Enter&#160;to&#160;open)</text><text class="terminal-2889145390-r1" x="1171.2" y="312.8" textLength="12.2" clip-path="url(#terminal-2889145390-line-12)">
</text><text class="terminal-2889145390-r11" x="12.2" y="337.2" textLength="183" clip-path="url(#terminal-2889145390-line-13)">&#160;Save&#160;(Ctrl+S)&#160;</text><text class="terminal-2889145390-r12" x="219.6" y="337.2" textLength="207.4" clip-path="url(#terminal-2889145390-line-13)">&#160;Cancel&#160;(Ctrl+C)&#160;</text><text class="terminal-2889145390-r1" x="1171.2" y="337.2" textLength="12.2" clip-path="url(#terminal-2889145390-line-13)">
</text><text class="terminal-2889145390-r2" x="0" y="361.6" textLength="1171.2" clip-path="url(#terminal-2889145390-line-14)">▔▔▔▔▔▔▔▔▔▔▔▔▔▔▔▔▔▔▔▔▔▔▔▔▔▔▔▔▔▔▔▔▔▔▔▔▔▔▔▔▔▔▔▔▔▔▔▔▔▔▔▔▔▔▔▔▔▔▔▔▔▔▔▔▔▔▔▔▔▔▔▔▔▔▔▔▔▔▔▔▔▔▔▔▔▔▔▔▔▔▔▔▔▔▔▔</text><text class="terminal-2889145390-r1" x="1171.2" y="361.6" textLength="12.2" clip-path="url(#terminal-2889145390-line-14)">
</text><text class="terminal-2889145390-r3" x="12.2" y="386" textLength="48.8" clip-path="url(#terminal-2889145390-line-15)">Tab/</text><text class="terminal-2889145390-r3" x="61" y="386" textLength="61" clip-path="url(#terminal-2889145390-line-15)">Enter</text><text class="terminal-2889145390-r9" x="122" y="386" textLength="427" clip-path="url(#terminal-2889145390-line-15)">&#160;next&#160;·&#160;click&#160;[&#160;+&#160;add&#160;item&#160;]&#160;/&#160;✕&#160;·&#160;</text><text class="terminal-2889145390-r3" x="549" y="386" textLength="36.6" clip-path="url(#terminal-2889145390-line-15)">Del</text><text class="terminal-2889145390-r9" x="585.6" y="386" textLength="122" clip-path="url(#terminal-2889145390-line-15)">&#160;delete&#160;·&#160;</text><text class="terminal-2889145390-r3" x="707.6" y="386" textLength="85.4" clip-path="url(#terminal-2889145390-line-15)">Ctrl+↑↓</text><text class="terminal-2889145390-r9" x="793" y="386" textLength="97.6" clip-path="url(#terminal-2889145390-line-15)">&#160;move&#160;·&#160;</text><text class="terminal-2889145390-r3" x="890.6" y="386" textLength="36.6" clip-path="url(#terminal-2889145390-line-15)">Esc</text><text class="terminal-2889145390-r9" x="927.2" y="386" textLength="61" clip-path="url(#terminal-2889145390-line-15)">&#160;back</text>
    </g>
    </g>
</svg>
