<svg class="rich-terminal" viewBox="0 0 1190 440.4" xmlns="http://www.w3.org/2000/svg">
    <!-- Generated with Rich https://www.textualize.io -->
    <style>

    @font-face {
        font-family: "Fira Code";
        src: local("FiraCode-Regular"),
                url("https://cdnjs.cloudflare.com/ajax/libs/firacode/6.2.0/woff2/FiraCode-Regular.woff2") format("woff2"),
                url("https://cdnjs.cloudflare.com/ajax/libs/firacode/6.2.0/woff/FiraCode-Regular.woff") format("woff");
        font-style: normal;
        font-weight: 400;
    }
    @font-face {
        font-family: "Fira Code";
        src: local("FiraCode-Bold"),
                url("https://cdnjs.cloudflare.com/ajax/libs/firacode/6.2.0/woff2/FiraCode-Bold.woff2") format("woff2"),
                url("https://cdnjs.cloudflare.com/ajax/libs/firacode/6.2.0/woff/FiraCode-Bold.woff") format("woff");
        font-style: bold;
        font-weight: 700;
    }

    .terminal-2176837197-matrix {
        font-family: Fira Code, monospace;
        font-size: 20px;
        line-height: 24.4px;
        font-variant-east-asian: full-width;
    }

    .terminal-2176837197-title {
        font-size: 18px;
        font-weight: bold;
        font-family: arial;
    }

    .terminal-2176837197-r1 { fill: #c5c8c6 }
.terminal-2176837197-r2 { fill: #9f9f9f }
.terminal-2176837197-r3 { fill: #dfdfdf }
.terminal-2176837197-r4 { fill: #d18b40;font-weight: bold }
.terminal-2176837197-r5 { fill: #e1e1e1 }
.terminal-2176837197-r6 { fill: #a3a3a4 }
.terminal-2176837197-r7 { fill: #121212 }
.terminal-2176837197-r8 { fill: #0f0f10;font-weight: bold }
.terminal-2176837197-r9 { fill: #e1e1e1;font-weight: bold }
.terminal-2176837197-r10 { fill: #6e6e6e }
    </style>

    <defs>
    <clipPath id="terminal-2176837197-clip-terminal">
      <rect x="0" y="0" width="1170.1999999999998" height="389.4" />
    </clipPath>
    <clipPath id="terminal-2176837197-line-0">
    <rect x="0" y="1.5" width="1171.2" height="24.65"/>
            </clipPath>
<clipPath id="terminal-2176837197-line-1">
    <rect x="0" y="25.9" width="1171.2" height="24.65"/>
            </clipPath>
<clipPath id="terminal-2176837197-line-2">
    <rect x="0" y="50.3" width="1171.2" height="24.65"/>
            </clipPath>
<clipPath id="terminal-2176837197-line-3">
    <rect x="0" y="74.7" width="1171.2" height="24.65"/>
            </clipPath>
<clipPath id="terminal-2176837197-line-4">
    <rect x="0" y="99.1" width="1171.2" height="24.65"/>
            </clipPath>
<clipPath id="terminal-2176837197-line-5">
    <rect x="0" y="123.5" width="1171.2" height="24.65"/>
            </clipPath>
<clipPath id="terminal-2176837197-line-6">
    <rect x="0" y="147.9" width="1171.2" height="24.65"/>
            </clipPath>
<clipPath id="terminal-2176837197-line-7">
    <rect x="0" y="172.3" width="1171.2" height="24.65"/>
            </clipPath>
<clipPath id="terminal-2176837197-line-8">
    <rect x="0" y="196.7" width="1171.2" height="24.65"/>
            </clipPath>
<clipPath id="terminal-2176837197-line-9">
    <rect x="0" y="221.1" width="1171.2" height="24.65"/>
            </clipPath>
<clipPath id="terminal-2176837197-line-10">
    <rect x="0" y="245.5" width="1171.2" height="24.65"/>
            </clipPath>
<clipPath id="terminal-2176837197-line-11">
    <rect x="0" y="269.9" width="1171.2" height="24.65"/>
            </clipPath>
<clipPath id="terminal-2176837197-line-12">
    <rect x="0" y="294.3" width="1171.2" height="24.65"/>
            </clipPath>
<clipPath id="terminal-2176837197-line-13">
    <rect x="0" y="318.7" width="1171.2" height="24.65"/>
            </clipPath>
<clipPath id="terminal-2176837197-line-14">
    <rect x="0" y="343.1" width="1171.2" height="24.65"/>
            </clipPath>
    </defs>

    <rect fill="#292929" stroke="rgba(255,255,255,0.35)" stroke-width="1" x="1" y="1" width="1188" height="438.4" rx="8"/><text class="terminal-2176837197-title" fill="#c5c8c6" text-anchor="middle" x="594" y="27">pydantic-studio&#160;—&#160;examples/02_server_config.py&#160;tui</text>
            <g transform="translate(26,22)">
            <circle cx="0" cy="0" r="7" fill="#ff5f57"/>
            <circle cx="22" cy="0" r="7" fill="#febc2e"/>
            <circle cx="44" cy="0" r="7" fill="#28c840"/>
            </g>
        
    <g transform="translate(9, 41)" clip-path="url(#terminal-2176837197-clip-terminal)">
    <rect fill="#0f0f10" x="0" y="1.5" width="12.2" height="24.65" shape-rendering="crispEdges"/><rect fill="#0f0f10" x="12.2" y="1.5" width="146.4" height="24.65" shape-rendering="crispEdges"/><rect fill="#0f0f10" x="158.6" y="1.5" width="1000.4" height="24.65" shape-rendering="crispEdges"/><rect fill="#0f0f10" x="1159" y="1.5" width="12.2" height="24.65" shape-rendering="crispEdges"/><rect fill="#0f0f10" x="0" y="25.9" width="12.2" height="24.65" shape-rendering="crispEdges"/><rect fill="#0f0f10" x="12.2" y="25.9" width="12.2" height="24.65" shape-rendering="crispEdges"/><rect fill="#0f0f10" x="24.4" y="25.9" width="12.2" height="24.65" shape-rendering="crispEdges"/><rect fill="#0f0f10" x="36.6" y="25.9" width="12.2" height="24.65" shape-rendering="crispEdges"/><rect fill="#0f0f10" x="48.8" y="25.9" width="48.8" height="24.65" shape-rendering="crispEdges"/><rect fill="#0f0f10" x="97.6" y="25.9" width="73.2" height="24.65" shape-rendering="crispEdges"/><rect fill="#0f0f10" x="170.8" y="25.9" width="122" height="24.65" shape-rendering="crispEdges"/><rect fill="#0f0f10" x="292.8" y="25.9" width="134.2" height="24.65" shape-rendering="crispEdges"/><rect fill="#0f0f10" x="427" y="25.9" width="683.2" height="24.65" shape-rendering="crispEdges"/><rect fill="#0f0f10" x="1110.2" y="25.9" width="36.6" height="24.65" shape-rendering="crispEdges"/><rect fill="#0f0f10" x="1146.8" y="25.9" width="0" height="24.65" shape-rendering="crispEdges"/><rect fill="#0f0f10" x="1146.8" y="25.9" width="12.2" height="24.65" shape-rendering="crispEdges"/><rect fill="#0f0f10" x="1159" y="25.9" width="12.2" height="24.65" shape-rendering="crispEdges"/><rect fill="#0f0f10" x="0" y="50.3" width="12.2" height="24.65" shape-rendering="crispEdges"/><rect fill="#1a1a1c" x="12.2" y="50.3" width="12.2" height="24.65" shape-rendering="crispEdges"/><rect fill="#1a1a1c" x="24.4" y="50.3" width="12.2" height="24.65" shape-rendering="crispEdges"/><rect fill="#1a1a1c" x="36.6" y="50.3" width="12.2" height="24.65" shape-rendering="crispEdges"/><rect fill="#1a1a1c" x="48.8" y="50.3" width="97.6" height="24.65" shape-rendering="crispEdges"/><rect fill="#1a1a1c" x="146.4" y="50.3" width="24.4" height="24.65" shape-rendering="crispEdges"/><rect fill="#1a1a1c" x="170.8" y="50.3" width="122" height="24.65" shape-rendering="crispEdges"/><rect fill="#e0e0e0" x="292.8" y="50.3" width="12.2" height="24.65" shape-rendering="crispEdges"/><rect fill="#19191a" x="305" y="50.3" width="805.2" height="24.65" shape-rendering="crispEdges"/><rect fill="#1a1a1c" x="1110.2" y="50.3" width="36.6" height="24.65" shape-rendering="crispEdges"/><rect fill="#1a1a1c" x="1146.8" y="50.3" width="0" height="24.65" shape-rendering="crispEdges"/><rect fill="#1a1a1c" x="1146.8" y="50.3" width="12.2" height="24.65" shape-rendering="crispEdges"/><rect fill="#0f0f10" x="1159" y="50.3" width="12.2" height="24.65" shape-rendering="crispEdges"/><rect fill="#0f0f10" x="0" y="74.7" width="12.2" height="24.65" shape-rendering="crispEdges"/><rect fill="#0f0f10" x="12.2" y="74.7" width="12.2" height="24.65" shape-rendering="crispEdges"/><rect fill="#0f0f10" x="24.4" y="74.7" width="12.2" height="24.65" shape-rendering="crispEdges"/><rect fill="#0f0f10" x="36.6" y="74.7" width="12.2" height="24.65" shape-rendering="crispEdges"/><rect fill="#0f0f10" x="48.8" y="74.7" width="97.6" height="24.65" shape-rendering="crispEdges"/><rect fill="#0f0f10" x="146.4" y="74.7" width="24.4" height="24.65" shape-rendering="crispEdges"/><rect fill="#0f0f10" x="170.8" y="74.7" width="122" height="24.65" shape-rendering="crispEdges"/><rect fill="#0f0f10" x="292.8" y="74.7" width="97.6" height="24.65" shape-rendering="crispEdges"/><rect fill="#0f0f10" x="390.4" y="74.7" width="719.8" height="24.65" shape-rendering="crispEdges"/><rect fill="#0f0f10" x="1110.2" y="74.7" width="24.4" height="24.65" shape-rendering="crispEdges"/><rect fill="#0f0f10" x="1134.6" y="74.7" width="12.2" height="24.65" shape-rendering="crispEdges"/><rect fill="#0f0f10" x="1146.8" y="74.7" width="12.2" height="24.65" shape-rendering="crispEdges"/><rect fill="#0f0f10" x="1159" y="74.7" width="12.2" height="24.65" shape-rendering="crispEdges"/><rect fill="#0f0f10" x="0" y="99.1" width="12.2" height="24.65" shape-rendering="crispEdges"/><rect fill="#0f0f10" x="12.2" y="99.1" width="12.2" height="24.65" shape-rendering="crispEdges"/><rect fill="#0f0f10" x="24.4" y="99.1" width="12.2" height="24.65" shape-rendering="crispEdges"/><rect fill="#0f0f10" x="36.6" y="99.1" width="12.2" height="24.65" shape-rendering="crispEdges"/><rect fill="#0f0f10" x="48.8" y="99.1" width="85.4" height="24.65" shape-rendering="crispEdges"/><rect fill="#0f0f10" x="134.2" y="99.1" width="36.6" height="24.65" shape-rendering="crispEdges"/><rect fill="#0f0f10" x="170.8" y="99.1" width="122" height="24.65" shape-rendering="crispEdges"/><rect fill="#0f0f10" x="292.8" y="99.1" width="97.6" height="24.65" shape-rendering="crispEdges"/><rect fill="#0f0f10" x="390.4" y="99.1" width="719.8" height="24.65" shape-rendering="crispEdges"/><rect fill="#0f0f10" x="1110.2" y="99.1" width="24.4" height="24.65" shape-rendering="crispEdges"/><rect fill="#0f0f10" x="1134.6" y="99.1" width="12.2" height="24.65" shape-rendering="crispEdges"/><rect fill="#0f0f10" x="1146.8" y="99.1" width="12.2" height="24.65" shape-rendering="crispEdges"/><rect fill="#0f0f10" x="1159" y="99.1" width="12.2" height="24.65" shape-rendering="crispEdges"/><rect fill="#0f0f10" x="0" y="123.5" width="12.2" height="24.65" shape-rendering="crispEdges"/><rect fill="#0f0f10" x="12.2" y="123.5" width="1146.8" height="24.65" shape-rendering="crispEdges"/><rect fill="#0f0f10" x="1159" y="123.5" width="12.2" height="24.65" shape-rendering="crispEdges"/><rect fill="#0f0f10" x="0" y="147.9" width="12.2" height="24.65" shape-rendering="crispEdges"/><rect fill="#0f0f10" x="12.2" y="147.9" width="1146.8" height="24.65" shape-rendering="crispEdges"/><rect fill="#0f0f10" x="1159" y="147.9" width="12.2" height="24.65" shape-rendering="crispEdges"/><rect fill="#0f0f10" x="0" y="172.3" width="12.2" height="24.65" shape-rendering="crispEdges"/><rect fill="#0f0f10" x="12.2" y="172.3" width="1146.8" height="24.65" shape-rendering="crispEdges"/><rect fill="#0f0f10" x="1159" y="172.3" width="12.2" height="24.65" shape-rendering="crispEdges"/><rect fill="#0f0f10" x="0" y="196.7" width="12.2" height="24.65" shape-rendering="crispEdges"/><rect fill="#0f0f10" x="12.2" y="196.7" width="1146.8" height="24.65" shape-rendering="crispEdges"/><rect fill="#0f0f10" x="1159" y="196.7" width="12.2" height="24.65" shape-rendering="crispEdges"/><rect fill="#0f0f10" x="0" y="221.1" width="12.2" height="24.65" shape-rendering="crispEdges"/><rect fill="#0f0f10" x="12.2" y="221.1" width="1146.8" height="24.65" shape-rendering="crispEdges"/><rect fill="#0f0f10" x="1159" y="221.1" width="12.2" height="24.65" shape-rendering="crispEdges"/><rect fill="#0f0f10" x="0" y="245.5" width="12.2" height="24.65" shape-rendering="crispEdges"/><rect fill="#0f0f10" x="12.2" y="245.5" width="1146.8" height="24.65" shape-rendering="crispEdges"/><rect fill="#0f0f10" x="1159" y="245.5" width="12.2" height="24.65" shape-rendering="crispEdges"/><rect fill="#0f0f10" x="0" y="269.9" width="12.2" height="24.65" shape-rendering="crispEdges"/><rect fill="#0f0f10" x="12.2" y="269.9" width="1146.8" height="24.65" shape-rendering="crispEdges"/><rect fill="#0f0f10" x="1159" y="269.9" width="12.2" height="24.65" shape-rendering="crispEdges"/><rect fill="#0f0f10" x="0" y="294.3" width="12.2" height="24.65" shape-rendering="crispEdges"/><rect fill="#0f0f10" x="12.2" y="294.3" width="1061.4" height="24.65" shape-rendering="crispEdges"/><rect fill="#0f0f10" x="1073.6" y="294.3" width="85.4" height="24.65" shape-rendering="crispEdges"/><rect fill="#0f0f10" x="1159" y="294.3" width="12.2" height="24.65" shape-rendering="crispEdges"/><rect fill="#0f0f10" x="0" y="318.7" width="12.2" height="24.65" shape-rendering="crispEdges"/><rect fill="#d18b40" x="12.2" y="318.7" width="183" height="24.65" shape-rendering="crispEdges"/><rect fill="#d18b40" x="195.2" y="318.7" width="12.2" height="24.65" shape-rendering="crispEdges"/><rect fill="#0f0f10" x="207.4" y="318.7" width="12.2" height="24.65" shape-rendering="crispEdges"/><rect fill="#1a1a1c" x="219.6" y="318.7" width="207.4" height="24.65" shape-rendering="crispEdges"/><rect fill="#0f0f10" x="427" y="318.7" width="732" height="24.65" shape-rendering="crispEdges"/><rect fill="#0f0f10" x="1159" y="318.7" width="12.2" height="24.65" shape-rendering="crispEdges"/><rect fill="#0f0f10" x="0" y="343.1" width="1171.2" height="24.65" shape-rendering="crispEdges"/><rect fill="#0f0f10" x="0" y="367.5" width="12.2" height="24.65" shape-rendering="crispEdges"/><rect fill="#0f0f10" x="12.2" y="367.5" width="1146.8" height="24.65" shape-rendering="crispEdges"/><rect fill="#0f0f10" x="1159" y="367.5" width="12.2" height="24.65" shape-rendering="crispEdges"/>
    <g class="terminal-2176837197-matrix">
    <text class="terminal-2176837197-r2" x="12.2" y="20" textLength="146.4" clip-path="url(#terminal-2176837197-line-0)">ServerConfig</text><text class="terminal-2176837197-r1" x="1171.2" y="20" textLength="12.2" clip-path="url(#terminal-2176837197-line-0)">
</text><text class="terminal-2176837197-r3" x="48.8" y="44.4" textLength="48.8" clip-path="url(#terminal-2176837197-line-1)">name</text><text class="terminal-2176837197-r2" x="170.8" y="44.4" textLength="122" clip-path="url(#terminal-2176837197-line-1)">&#160;·&#160;·&#160;·&#160;·&#160;·</text><text class="terminal-2176837197-r3" x="292.8" y="44.4" textLength="134.2" clip-path="url(#terminal-2176837197-line-1)">api-gateway</text><text class="terminal-2176837197-r1" x="1171.2" y="44.4" textLength="12.2" clip-path="url(#terminal-2176837197-line-1)">
</text><text class="terminal-2176837197-r4" x="24.4" y="68.8" textLength="12.2" clip-path="url(#terminal-2176837197-line-2)">▸</text><text class="terminal-2176837197-r5" x="48.8" y="68.8" textLength="97.6" clip-path="url(#terminal-2176837197-line-2)">*api_url</text><text class="terminal-2176837197-r6" x="170.8" y="68.8" textLength="122" clip-path="url(#terminal-2176837197-line-2)">&#160;·&#160;·&#160;·&#160;·&#160;·</text><text class="terminal-2176837197-r1" x="1171.2" y="68.8" textLength="12.2" clip-path="url(#terminal-2176837197-line-2)">
</text><text class="terminal-2176837197-r3" x="48.8" y="93.2" textLength="97.6" clip-path="url(#terminal-2176837197-line-3)">database</text><text class="terminal-2176837197-r2" x="170.8" y="93.2" textLength="122" clip-path="url(#terminal-2176837197-line-3)">&#160;·&#160;·&#160;·&#160;·&#160;·</text><text class="terminal-2176837197-r3" x="292.8" y="93.2" textLength="97.6" clip-path="url(#terminal-2176837197-line-3)">3&#160;fields</text><text class="terminal-2176837197-r2" x="1134.6" y="93.2" textLength="12.2" clip-path="url(#terminal-2176837197-line-3)">&gt;</text><text class="terminal-2176837197-r1" x="1171.2" y="93.2" textLength="12.2" clip-path="url(#terminal-2176837197-line-3)">
</text><text class="terminal-2176837197-r3" x="48.8" y="117.6" textLength="85.4" clip-path="url(#terminal-2176837197-line-4)">logging</text><text class="terminal-2176837197-r2" x="170.8" y="117.6" textLength="122" clip-path="url(#terminal-2176837197-line-4)">&#160;·&#160;·&#160;·&#160;·&#160;·</text><text class="terminal-2176837197-r3" x="292.8" y="117.6" textLength="97.6" clip-path="url(#terminal-2176837197-line-4)">2&#160;fields</text><text class="terminal-2176837197-r2" x="1134.6" y="117.6" textLength="12.2" clip-path="url(#terminal-2176837197-line-4)">&gt;</text><text class="terminal-2176837197-r1" x="1171.2" y="117.6" textLength="12.2" clip-path="url(#terminal-2176837197-line-4)">
</text><text class="terminal-2176837197-r1" x="1171.2" y="142" textLength="12.2" clip-path="url(#terminal-2176837197-line-5)">
</text><text class="terminal-2176837197-r1" x="1171.2" y="166.4" textLength="12.2" clip-path="url(#terminal-2176837197-line-6)">
</text><text class="terminal-2176837197-r1" x="1171.2" y="190.8" textLength="12.2" clip-path="url(#terminal-2176837197-line-7)">
</text><text class="terminal-2176837197-r1" x="1171.2" y="215.2" textLength="12.2" clip-path="url(#terminal-2176837197-line-8)">
</text><text class="terminal-2176837197-r1" x="1171.2" y="239.6" textLength="12.2" clip-path="url(#terminal-2176837197-line-9)">
</text><text class="terminal-2176837197-r1" x="1171.2" y="264" textLength="12.2" clip-path="url(#terminal-2176837197-line-10)">
</text><text class="terminal-2176837197-r1" x="1171.2" y="288.4" textLength="12.2" clip-path="url(#terminal-2176837197-line-11)">
</text><text class="terminal-2176837197-r2" x="12.2" y="312.8" textLength="1061.4" clip-path="url(#terminal-2176837197-line-12)">[!]&#160;3&#160;required&#160;fields&#160;missing&#160;(Ctrl+N&#160;jumps)&#160;&#160;|&#160;&#160;api_url&#160;(url,&#160;required)&#160;—&#160;Upstream&#160;API</text><text class="terminal-2176837197-r1" x="1171.2" y="312.8" textLength="12.2" clip-path="url(#terminal-2176837197-line-12)">
</text><text class="terminal-2176837197-r8" x="12.2" y="337.2" textLength="183" clip-path="url(#terminal-2176837197-line-13)">&#160;Save&#160;(Ctrl+S)&#160;</text><text class="terminal-2176837197-r9" x="219.6" y="337.2" textLength="207.4" clip-path="url(#terminal-2176837197-line-13)">&#160;Cancel&#160;(Ctrl+C)&#160;</text><text class="terminal-2176837197-r1" x="1171.2" y="337.2" textLength="12.2" clip-path="url(#terminal-2176837197-line-13)">
</text><text class="terminal-2176837197-r10" x="0" y="361.6" textLength="1171.2" clip-path="url(#terminal-2176837197-line-14)">▔▔▔▔▔▔▔▔▔▔▔▔▔▔▔▔▔▔▔▔▔▔▔▔▔▔▔▔▔▔▔▔▔▔▔▔▔▔▔▔▔▔▔▔▔▔▔▔▔▔▔▔▔▔▔▔▔▔▔▔▔▔▔▔▔▔▔▔▔▔▔▔▔▔▔▔▔▔▔▔▔▔▔▔▔▔▔▔▔▔▔▔▔▔▔▔</text><text class="terminal-2176837197-r1" x="1171.2" y="361.6" textLength="12.2" clip-path="url(#terminal-2176837197-line-14)">
</text><text class="terminal-2176837197-r2" x="12.2" y="386" textLength="1146.8" clip-path="url(#terminal-2176837197-line-15)">type&#160;to&#160;edit&#160;|&#160;Tab/Enter&#160;next&#160;|&#160;Space&#160;toggle&#160;|&#160;←→&#160;cycle&#160;|&#160;Ctrl+N&#160;next&#160;required&#160;|&#160;Ctrl+F&#160;filter</text>
    </g>
    </g>
</svg>
